<?xml version="1.0" standalone="no"?>
<!DOCTYPE svg PUBLIC "-//W3C//DTD SVG 20010904//EN"
 "http://www.w3.org/TR/2001/REC-SVG-20010904/DTD/svg10.dtd">
<svg version="1.0" xmlns="http://www.w3.org/2000/svg"
 width="973.000000pt" height="958.000000pt" viewBox="0 0 973.000000 958.000000"
 preserveAspectRatio="xMidYMid meet">

<g transform="translate(0.000000,958.000000) scale(0.100000,-0.100000)"
fill="#f7ffe9" stroke="none">
<path d="M4690 9492 c-439 -202 -1009 -500 -1365 -712 -1024 -610 -1948 -1363
-3124 -2544 l-195 -195 23 -193 c190 -1618 538 -2820 1277 -4408 112 -241 537
-1096 553 -1112 19 -20 680 -141 1081 -198 1416 -201 2686 -165 4550 130 135
21 275 44 311 50 l66 12 121 216 c755 1357 1179 2521 1496 4112 75 374 236
1317 236 1380 0 27 -562 612 -841 876 -906 856 -1799 1489 -3084 2184 -261
141 -920 480 -931 479 -5 0 -83 -35 -174 -77z m456 -202 c1725 -883 2757
-1596 3808 -2630 213 -210 561 -573 616 -643 l21 -26 -36 -228 c-343 -2205
-784 -3565 -1672 -5159 l-96 -172 -192 -31 c-1157 -189 -2041 -271 -2901 -271
-514 0 -874 20 -1374 76 -487 54 -1361 204 -1382 237 -4 6 -84 163 -177 347
-970 1918 -1402 3277 -1607 5053 l-17 149 259 259 c1451 1456 2610 2307 4098
3010 138 66 274 130 301 143 28 14 56 25 64 25 8 1 137 -62 287 -139z"/>
<path d="M4850 9284 c-55 -134 -178 -281 -331 -396 -184 -138 -394 -245 -799
-408 -668 -267 -960 -474 -1054 -743 -13 -37 -26 -70 -28 -72 -2 -2 -99 31
-216 74 -169 63 -212 75 -212 62 0 -9 7 -113 15 -231 8 -118 15 -218 15 -222
0 -5 -40 -8 -88 -8 -274 0 -463 -126 -788 -525 -218 -267 -294 -355 -392 -453
-204 -204 -396 -321 -631 -383 l-81 -22 36 -39 c95 -105 181 -275 229 -451 49
-181 66 -299 105 -734 17 -182 39 -382 50 -445 57 -337 165 -537 352 -658 l57
-37 -150 -184 c-82 -101 -149 -187 -149 -191 0 -5 15 -8 33 -8 44 0 430 -30
434 -33 1 -2 -6 -26 -17 -54 -29 -76 -40 -193 -29 -293 25 -220 106 -415 394
-955 259 -485 348 -708 386 -964 15 -105 6 -262 -19 -354 -11 -37 -17 -66 -13
-65 210 110 317 145 488 156 227 16 432 -12 873 -118 135 -32 292 -68 350 -79
363 -71 582 -49 767 75 37 25 70 41 73 37 4 -5 56 -77 115 -160 59 -84 109
-153 111 -153 1 0 55 76 119 170 l116 170 59 -41 c132 -90 283 -125 500 -116
175 8 312 31 715 122 398 89 524 111 718 127 258 21 460 -11 642 -101 55 -27
101 -48 103 -47 1 2 -5 30 -13 62 -25 93 -30 234 -11 343 43 245 158 485 461
961 231 362 323 534 382 709 31 91 37 122 41 223 4 100 1 126 -17 185 -12 37
-24 73 -27 79 -3 7 63 28 185 59 l190 47 -31 47 c-18 25 -71 103 -120 173 -48
69 -88 131 -88 136 0 6 20 22 43 35 63 37 157 142 199 223 48 90 84 216 102
356 20 148 24 219 36 548 6 151 17 334 26 406 41 367 155 617 350 776 l66 53
-33 3 c-268 20 -459 108 -697 320 -92 83 -227 235 -424 479 -269 334 -375 446
-521 548 -124 86 -243 127 -374 129 -51 1 -73 5 -73 14 0 6 20 98 45 203 25
105 45 197 45 204 0 9 -75 -21 -202 -81 -204 -96 -217 -99 -218 -53 0 9 -19
54 -42 100 -31 63 -61 103 -122 165 -147 148 -333 253 -841 474 -503 219 -725
344 -896 507 -105 101 -162 176 -217 290 l-39 81 -23 -54z m-189 -1506 c0 -2
6 -76 12 -165 13 -175 13 -173 -37 -173 -16 0 -38 23 -85 90 -35 50 -66 90
-69 90 -2 0 -1 -43 3 -95 l7 -95 -35 0 -34 0 -7 88 c-3 48 -9 122 -12 165 l-7
78 39 -3 c36 -3 42 -9 104 -95 36 -50 66 -90 67 -89 1 1 -1 45 -5 98 l-7 97
25 4 c14 2 28 5 33 6 4 0 7 0 8 -1z m287 -8 c51 0 52 0 52 -30 0 -29 -1 -30
-50 -30 l-49 0 -3 -132 -3 -133 -35 0 -35 0 3 133 3 132 -51 0 -50 0 0 36 0
37 83 -6 c45 -4 106 -7 135 -7z m223 -1 c46 -6 96 -17 110 -25 60 -31 59 -128
-2 -160 -17 -8 -29 -18 -27 -22 2 -4 18 -35 36 -69 17 -34 32 -65 32 -68 0 -4
-17 -5 -37 -3 -34 3 -41 8 -70 58 -44 75 -55 88 -78 92 -15 2 -21 -3 -23 -22
-11 -109 -10 -106 -47 -102 -24 3 -35 9 -35 20 0 21 29 261 36 290 5 26 -2 25
105 11z m379 -62 c95 -20 105 -24 108 -46 2 -13 0 -27 -5 -31 -4 -5 -45 0 -90
10 -59 13 -83 15 -83 6 0 -6 -3 -20 -6 -32 -5 -18 2 -21 63 -33 93 -19 92 -18
84 -49 -9 -31 -5 -31 -94 -13 -37 7 -69 12 -71 10 -2 -2 -6 -21 -10 -41 -6
-31 -4 -38 9 -38 9 0 47 -7 86 -16 61 -14 69 -18 69 -39 0 -13 -4 -26 -9 -30
-5 -3 -54 4 -108 15 -128 28 -133 29 -133 43 -1 37 65 307 74 307 6 -1 58 -11
116 -23z m-1253 -142 c53 -80 94 -147 92 -149 -2 -2 -20 -7 -39 -11 -32 -6
-37 -3 -54 25 -17 30 -22 32 -57 26 -71 -11 -89 -23 -89 -55 0 -32 -22 -51
-59 -51 -25 0 -26 -11 7 185 26 151 29 160 52 166 14 4 31 7 37 8 7 1 56 -64
110 -144z m1490 84 c29 -10 32 -16 59 -127 l28 -117 30 98 c29 95 31 98 56 92
14 -4 28 -9 32 -13 4 -4 -15 -75 -41 -157 -48 -149 -48 -150 -77 -148 -16 1
-34 9 -40 17 -6 8 -21 61 -34 118 l-23 103 -31 -93 -30 -93 -31 7 c-16 3 -32
8 -34 10 -1 1 18 67 44 146 26 79 48 149 50 156 5 15 5 15 42 1z m-1843 -44
c32 -30 30 -45 -8 -58 -21 -7 -32 -5 -46 8 -22 20 -66 10 -84 -18 -16 -26 0
-32 84 -32 69 0 81 -3 104 -24 81 -76 7 -190 -122 -191 -37 0 -50 6 -80 36
l-37 37 31 15 c29 13 34 13 61 -7 34 -26 75 -21 97 11 27 38 10 48 -76 48 -75
0 -81 2 -109 29 -35 36 -38 77 -7 116 46 58 145 74 192 30z m-306 -80 c7 -14
12 -27 12 -29 0 -2 -34 -19 -76 -37 -70 -31 -75 -35 -69 -59 4 -14 8 -27 11
-29 3 -3 38 10 144 57 7 3 33 -48 27 -54 -2 -2 -33 -17 -70 -34 -37 -17 -67
-34 -67 -40 0 -16 23 -60 31 -60 4 0 42 16 84 35 l76 34 11 -25 c7 -15 8 -28
2 -34 -11 -11 -215 -102 -219 -98 -5 5 -126 279 -128 290 -2 7 190 103 214
107 3 1 11 -10 17 -24z m2700 -103 l23 -18 -16 -169 c-9 -94 -18 -171 -20
-173 -2 -2 -17 4 -35 13 -28 15 -31 20 -29 57 3 40 3 41 -51 68 l-55 28 -27
-25 c-25 -24 -30 -25 -58 -13 -17 7 -29 17 -27 23 6 19 242 226 257 226 8 0
25 -7 38 -17z m-3000 -56 c26 -13 42 -37 56 -79 11 -33 -20 -85 -68 -114 -26
-15 -46 -32 -46 -37 0 -5 12 -29 26 -53 14 -25 24 -46 22 -47 -56 -37 -57 -37
-72 -14 -47 75 -144 263 -140 270 9 13 157 87 177 88 10 0 30 -6 45 -14z
m3229 -73 c21 -14 21 -15 -48 -124 -38 -60 -69 -111 -69 -113 0 -2 29 -21 65
-42 35 -22 65 -43 65 -49 -1 -5 -7 -19 -15 -29 -15 -20 -12 -22 -182 85 -13 7
-23 18 -23 22 0 20 166 274 175 269 6 -3 20 -12 32 -19z m-1642 -120 l31 -98
119 -5 120 -5 -92 -68 c-51 -38 -93 -71 -93 -74 0 -3 14 -51 31 -105 17 -55
29 -102 26 -104 -2 -2 -43 25 -92 61 l-88 64 -31 -22 c-17 -12 -58 -41 -91
-65 -33 -24 -61 -40 -62 -35 -2 5 12 54 31 109 l33 100 -88 64 c-49 35 -89 67
-89 72 0 4 50 9 112 10 l111 3 35 103 c19 57 37 101 40 98 3 -3 19 -50 37
-103z m-1997 -90 l-3 -86 102 -36 c57 -20 103 -39 103 -43 0 -4 -14 -17 -32
-29 l-31 -23 -61 23 c-85 32 -100 32 -104 -2 -2 -19 6 -39 27 -66 l30 -38 -22
-22 c-13 -11 -27 -21 -33 -21 -8 1 -75 84 -177 221 l-27 37 29 22 30 21 38
-51 c35 -48 38 -49 45 -28 3 13 7 50 7 83 1 33 5 65 9 70 8 12 62 55 69 55 2
0 3 -39 1 -87z m3792 -99 c43 -31 48 -38 39 -55 -17 -33 -35 -32 -83 1 -26 17
-46 33 -46 36 0 7 32 54 36 54 2 0 26 -16 54 -36z m300 -9 l24 -25 -53 -163
c-29 -89 -55 -164 -57 -166 -3 -3 -17 7 -31 22 -24 24 -26 29 -16 62 11 34 10
36 -35 75 l-47 39 -33 -20 -34 -19 -29 24 c-21 18 -26 27 -17 33 28 18 293
163 299 163 3 0 16 -11 29 -25z m-4333 -106 c34 -12 90 -64 109 -101 50 -96
-32 -228 -143 -228 -54 0 -90 18 -130 64 -63 71 -66 149 -10 213 50 57 112 76
174 52z m1007 -125 l23 -69 84 -5 84 -5 -67 -48 -66 -48 23 -76 c13 -43 23
-78 21 -80 -1 -2 -29 17 -62 42 -32 24 -63 45 -68 45 -5 0 -37 -20 -72 -46
-35 -25 -64 -41 -64 -36 0 5 11 40 24 79 l24 71 -66 48 -67 49 82 3 82 3 22
67 c24 74 29 85 35 79 2 -2 15 -35 28 -73z m3518 49 c23 -21 23 -33 -7 -145
-14 -51 -25 -97 -25 -103 0 -5 31 22 70 60 l69 69 26 -24 25 -24 -32 -34 c-18
-18 -73 -70 -122 -115 l-88 -81 -23 26 -23 27 29 108 c16 59 29 110 29 113 0
2 -32 -27 -70 -65 l-70 -70 -25 26 -26 25 115 112 c63 62 118 112 122 112 4 0
16 -7 26 -17z m-1098 -69 l23 -69 82 -5 83 -5 -65 -48 -66 -48 25 -71 c13 -40
23 -75 22 -79 -2 -4 -33 14 -69 41 l-65 48 -65 -49 c-35 -26 -65 -45 -67 -41
-1 4 9 40 22 80 l25 71 -67 48 -67 48 82 3 82 3 22 67 c24 74 29 85 35 79 2
-2 15 -35 28 -73z m-3679 -143 c54 -24 112 -91 121 -137 8 -46 -15 -95 -79
-166 l-42 -48 -122 101 c-68 55 -123 104 -123 110 0 15 105 133 131 146 33 17
67 16 114 -6z m5009 -47 c10 -14 16 -29 14 -34 -2 -5 -31 -41 -66 -80 -35 -38
-61 -70 -58 -70 2 0 46 16 98 36 l93 35 22 -28 c13 -15 23 -32 23 -37 0 -4
-30 -44 -66 -88 -75 -89 -82 -87 65 -22 l63 28 19 -25 c10 -13 17 -28 16 -32
-3 -9 -283 -127 -301 -127 -7 0 -19 13 -29 29 l-17 29 70 86 c39 47 68 86 63
86 -4 0 -52 -17 -107 -37 l-98 -37 -24 29 -23 29 22 27 c72 89 193 229 198
229 4 0 14 -12 23 -26z m-5184 -255 c69 -44 129 -84 133 -88 5 -5 2 -22 -7
-39 l-16 -30 -117 5 c-65 3 -116 3 -113 0 3 -3 40 -28 83 -56 l78 -51 -17 -25
c-9 -14 -20 -25 -25 -25 -10 0 -269 168 -269 175 0 3 7 17 16 30 16 24 20 25
133 25 l116 0 -70 46 c-39 26 -74 50 -79 55 -9 8 11 59 23 59 4 0 63 -36 131
-81z m2596 -96 c41 -30 43 -43 9 -43 -23 0 -95 58 -95 76 0 12 53 -8 86 -33z
m72 23 c15 -8 38 -26 51 -40 l24 -26 -36 0 c-20 0 -37 4 -37 9 0 6 -15 24 -32
40 -26 24 -29 31 -15 31 10 0 30 -6 45 -14z m137 -37 l40 -39 -33 0 c-22 0
-35 6 -39 18 -4 9 -17 25 -30 35 -13 10 -23 23 -23 28 0 19 45 -3 85 -42z
m-319 14 c51 -33 55 -43 15 -43 -19 0 -42 12 -67 35 -35 32 -36 35 -15 35 13
0 43 -12 67 -27z m419 -23 c24 -25 33 -40 25 -45 -19 -12 -60 4 -60 24 0 10
-9 26 -20 36 -11 10 -20 21 -20 26 0 16 40 -5 75 -41z m-527 14 c29 -14 50
-30 46 -35 -7 -12 -64 -11 -64 1 0 6 -16 18 -35 27 -19 9 -32 20 -29 25 9 13
27 9 82 -18z m624 -26 c25 -27 35 -45 28 -52 -12 -12 -60 9 -60 27 0 8 -9 22
-20 32 -24 22 -26 35 -3 35 9 0 33 -19 55 -42z m-731 11 c27 -12 48 -27 46
-33 -5 -14 -57 -21 -57 -7 0 6 -16 19 -35 28 -19 9 -32 20 -29 25 8 12 21 10
75 -13z m820 -21 c45 -47 54 -68 30 -68 -31 0 -51 11 -51 27 0 8 -9 28 -21 44
-18 25 -18 29 -4 29 9 0 30 -14 46 -32z m-906 -5 c19 -9 34 -22 32 -27 -6 -20
-47 -18 -73 3 -15 12 -33 21 -40 21 -8 0 -14 5 -14 10 0 16 56 12 95 -7z m980
1 c22 -9 77 -91 66 -98 -17 -11 -61 13 -61 32 0 10 -7 27 -15 38 -23 31 -20
39 10 28z m-1077 -31 c40 -15 43 -18 26 -30 -21 -15 -54 -17 -54 -4 0 5 -16
15 -35 21 -19 6 -35 16 -35 21 0 14 50 11 98 -8z m1221 -62 l23 -43 -28 4
c-22 2 -30 9 -32 28 -2 13 -10 33 -18 44 -21 30 -17 40 9 24 12 -8 33 -34 46
-57z m2185 25 l19 -35 -108 -137 -108 -137 -19 23 c-24 29 -23 49 3 76 l22 23
-31 53 c-29 52 -31 53 -70 50 -37 -3 -42 -1 -57 27 -8 17 -14 32 -13 32 2 1
77 14 168 29 91 15 167 28 170 29 3 0 14 -14 24 -33z m-2739 14 c517 -49 969
-317 1256 -745 405 -604 374 -1404 -75 -1979 -142 -181 -368 -367 -577 -471
-115 -58 -287 -117 -429 -146 -100 -21 -142 -24 -320 -24 -271 1 -437 33 -658
127 -568 244 -951 758 -1022 1373 -69 608 216 1228 723 1573 332 226 717 328
1102 292z m-756 -14 c26 -9 30 -14 20 -22 -25 -20 -47 -23 -59 -9 -6 8 -25 17
-41 20 -16 4 -29 11 -29 16 0 13 68 10 109 -5z m1403 -61 c25 -50 22 -60 -14
-46 -17 6 -27 20 -31 38 -3 15 -8 39 -13 52 -6 21 -5 22 15 12 12 -7 31 -32
43 -56z m-1503 24 c24 -9 29 -14 21 -24 -13 -16 -50 -26 -50 -14 0 4 -18 13
-40 19 -22 6 -38 15 -35 20 8 13 65 13 104 -1z m-1309 -81 l22 -68 79 0 c43 0
79 -4 79 -8 0 -4 -12 -15 -27 -24 -16 -9 -43 -30 -62 -45 l-34 -29 21 -64 c12
-35 22 -70 22 -77 0 -8 -27 5 -65 33 -74 52 -67 53 -158 -19 -21 -16 -40 -27
-42 -25 -3 3 6 38 20 78 14 40 25 75 25 76 0 2 -30 25 -67 51 l-68 48 86 3 86
3 23 75 c13 41 27 71 31 67 3 -5 16 -38 29 -75z m-759 45 c68 -35 99 -79 99
-142 0 -67 -34 -120 -93 -150 -43 -21 -52 -22 -95 -11 -124 31 -184 139 -132
240 45 88 125 111 221 63z m3638 5 c22 -23 47 -86 37 -95 -8 -9 -57 27 -51 37
3 5 -1 25 -9 45 -17 40 -7 46 23 13z m1231 -63 l24 -75 78 0 c43 0 78 -4 78
-8 0 -4 -12 -15 -27 -24 -16 -9 -43 -30 -62 -45 l-34 -29 21 -64 c12 -35 22
-70 22 -77 0 -7 -27 7 -61 32 -34 25 -65 45 -69 45 -4 0 -35 -20 -69 -45 -34
-25 -61 -39 -61 -32 0 7 10 42 22 77 l21 64 -34 29 c-19 15 -46 36 -61 45 -16
9 -28 20 -28 24 0 4 35 8 78 8 l78 0 24 75 c13 41 26 75 30 75 4 0 17 -34 30
-75z m-2880 46 l25 -7 -28 -18 c-19 -13 -31 -15 -40 -8 -6 5 -27 13 -45 17
-18 3 -30 11 -26 16 6 10 77 10 114 0z m1733 -23 c17 -14 51 -97 42 -106 -3
-3 -16 0 -31 6 -19 9 -24 17 -19 32 3 10 -1 33 -10 50 -16 32 -10 38 18 18z
m-1818 -27 c18 -7 17 -9 -8 -26 -21 -13 -31 -15 -40 -6 -6 6 -26 11 -44 11
-33 0 -45 14 -20 23 19 8 90 7 112 -2z m1935 -80 c12 -44 13 -61 2 -61 -23 0
-40 30 -46 80 l-7 54 20 -18 c12 -11 25 -35 31 -55z m-2010 22 c3 -3 -4 -11
-15 -19 -18 -13 -55 -12 -110 3 -18 6 -17 8 9 18 27 11 103 10 116 -2z m2088
-65 c19 -61 20 -78 9 -78 -25 0 -42 21 -43 52 -1 18 -4 44 -8 56 -7 21 -6 23
12 13 11 -6 25 -26 30 -43z m1891 -45 c53 -132 51 -167 -9 -198 -40 -21 -72
-19 -104 6 -14 11 -26 15 -26 9 0 -12 -78 -130 -86 -130 -3 0 -12 16 -20 36
-15 36 -15 37 25 98 40 61 51 99 32 111 -5 3 -33 -4 -61 -15 -65 -26 -66 -26
-79 10 -9 27 -8 32 12 40 98 43 264 109 273 110 7 0 26 -35 43 -77z m-4069 47
c0 -22 -29 -29 -86 -21 l-59 8 32 14 c32 15 113 14 113 -1z m2260 -86 c5 -21
10 -47 10 -58 0 -17 -2 -17 -22 -4 -18 12 -23 25 -24 73 -2 50 0 55 13 42 8
-8 19 -32 23 -53z m-2340 28 c0 -5 -8 -16 -17 -24 -14 -11 -32 -13 -72 -9 -54
6 -57 17 -11 34 24 9 100 8 100 -1z m2405 -63 c9 -17 15 -48 13 -72 l-3 -42
-20 20 c-16 16 -19 30 -17 73 2 28 6 52 8 52 2 0 11 -14 19 -31z m-2485 -7 c0
-25 -36 -39 -84 -33 -49 6 -51 17 -6 34 24 9 90 8 90 -1z m-1782 -22 c46 -28
58 -59 44 -118 -6 -26 -13 -54 -17 -63 -4 -12 7 -19 51 -33 53 -17 55 -19 49
-44 -3 -15 -10 -31 -14 -35 -9 -9 -311 91 -311 102 0 3 13 42 30 86 44 120 93
150 168 105z m4338 -37 c7 -10 14 -42 14 -72 l0 -54 -25 23 c-18 17 -22 27
-15 41 6 9 7 31 4 48 -7 35 2 40 22 14z m-2626 -11 c0 -20 -38 -39 -82 -40
-52 -2 -61 8 -25 26 40 20 107 28 107 14z m2700 -78 c6 -14 10 -45 10 -69 0
-36 -3 -43 -15 -39 -24 10 -32 35 -27 87 4 52 17 61 32 21z m-2770 -2 c0 -15
-38 -44 -49 -37 -6 3 -27 2 -46 -4 -36 -10 -45 -2 -21 18 28 24 116 40 116 23z
m4469 -34 c8 -21 8 -34 1 -38 -32 -20 -293 -101 -300 -94 -5 5 -11 20 -15 34
-6 24 -1 27 142 77 81 28 151 52 155 52 3 1 11 -13 17 -31z m-1629 -105 c0
-58 -7 -64 -36 -32 -15 16 -16 24 -6 39 7 11 12 34 12 52 1 31 1 32 15 14 9
-12 15 -42 15 -73z m-2910 53 c0 -19 -22 -35 -45 -34 -11 1 -32 -2 -47 -5 -52
-14 -25 27 29 43 43 13 63 11 63 -4z m2965 -86 c4 -17 4 -49 0 -71 l-7 -41
-21 20 c-18 18 -19 25 -9 47 7 14 12 37 12 50 0 35 17 31 25 -5z m-3025 8 c0
-24 -17 -40 -46 -43 -16 -2 -40 -6 -53 -11 -41 -12 -20 18 29 44 50 25 70 28
70 10z m3079 -121 c-1 -23 -4 -53 -8 -65 l-6 -24 -19 21 c-16 17 -17 25 -8 44
6 12 13 35 17 50 8 41 25 23 24 -26z m-3129 35 c0 -19 -29 -46 -51 -48 -13 -1
-35 -5 -48 -9 -41 -13 -20 17 29 43 46 23 70 28 70 14z m-60 -111 c-6 -12 -18
-21 -26 -21 -8 0 -29 -7 -45 -16 -17 -8 -33 -13 -37 -10 -10 10 32 48 73 66
43 19 53 13 35 -19z m3234 -47 c-9 -47 -22 -57 -38 -31 -7 11 -6 23 1 39 6 13
15 37 18 53 7 30 7 30 18 7 7 -15 7 -38 1 -68z m-3276 -35 c-2 -12 -10 -25
-18 -29 -44 -22 -90 -39 -90 -34 0 18 26 47 58 63 48 26 54 26 50 0z m3322
-18 c0 -21 -5 -52 -11 -70 -9 -25 -14 -29 -25 -20 -16 13 -19 55 -5 64 5 3 12
19 16 35 9 43 25 37 25 -9z m-3364 -97 c-3 -8 -13 -14 -23 -14 -10 0 -29 -9
-43 -20 -34 -26 -42 -25 -28 6 6 14 30 36 52 49 34 21 42 22 44 9 2 -8 1 -22
-2 -30z m3404 4 c0 -37 -20 -98 -32 -98 -5 0 -13 11 -20 24 -8 20 -7 28 6 41
9 9 19 27 22 41 9 34 24 30 24 -8z m-4170 -63 l23 -74 85 -3 85 -3 -61 -43
c-34 -23 -64 -47 -66 -51 -3 -5 6 -41 19 -81 14 -41 23 -75 21 -77 -2 -2 -31
17 -65 42 -33 25 -65 45 -69 45 -4 0 -36 -20 -70 -45 -34 -25 -62 -40 -62 -33
0 6 10 42 22 80 12 37 20 69 17 71 -2 1 -31 23 -64 47 l-60 45 82 3 83 3 21
74 c12 41 25 75 29 75 3 0 17 -34 30 -75z m4929 -27 l22 -67 82 -3 82 -3 -62
-44 c-35 -25 -63 -50 -63 -55 0 -6 9 -40 20 -76 11 -36 20 -68 20 -73 0 -4
-30 15 -67 41 l-67 49 -65 -48 c-36 -26 -67 -46 -69 -45 -1 2 2 14 7 28 5 14
16 48 25 77 l15 52 -65 47 -66 47 83 5 82 5 25 73 c13 41 28 70 32 65 4 -4 17
-38 29 -75z m-4189 18 c0 -26 -12 -46 -27 -46 -8 0 -28 -9 -44 -21 -29 -20
-35 -16 -23 16 6 16 71 65 86 65 5 0 8 -6 8 -14z m3454 -70 c-20 -57 -31 -65
-46 -31 -9 21 -9 27 5 38 9 6 21 26 27 42 10 25 13 27 21 14 5 -11 3 -33 -7
-63z m-3486 -43 c-2 -20 -9 -29 -24 -31 -12 -2 -30 -12 -40 -23 -19 -21 -34
-25 -34 -7 0 14 77 88 91 88 6 0 9 -12 7 -27z m3502 -78 c-12 -19 -25 -33 -30
-30 -15 9 -18 45 -3 56 8 7 22 26 31 43 l17 31 3 -33 c2 -20 -5 -45 -18 -67z
m-3526 -3 c8 -14 -5 -52 -18 -52 -7 0 -23 -11 -36 -25 -52 -55 -55 -12 -4 45
37 40 49 47 58 32z m3542 -104 l-25 -42 -12 27 c-11 24 -10 30 8 50 11 12 27
33 34 47 l14 25 3 -32 c2 -22 -5 -47 -22 -75z m-3556 -18 c0 -20 -6 -33 -17
-37 -10 -3 -31 -18 -47 -32 l-29 -26 7 30 c7 29 61 95 78 95 4 0 8 -14 8 -30z
m3600 -12 c0 -27 -53 -111 -63 -101 -13 12 -7 61 8 67 8 3 20 17 27 31 14 31
28 32 28 3z m-3610 -94 c0 -14 -7 -27 -17 -31 -9 -4 -27 -18 -40 -32 l-22 -26
-1 24 c0 26 57 104 71 95 5 -3 9 -16 9 -30z m3616 -16 c-7 -37 -53 -101 -67
-93 -19 12 -8 46 29 84 20 22 39 40 41 41 2 0 1 -14 -3 -32z m-3616 -85 c0 -7
-18 -31 -40 -53 -37 -37 -40 -38 -40 -17 0 34 59 114 71 96 5 -8 9 -20 9 -26z
m3616 -27 c-7 -27 -53 -86 -67 -86 -5 0 -9 14 -9 30 0 19 5 30 14 30 8 0 24
14 36 31 25 34 35 32 26 -5z m-3618 -72 c3 -19 -56 -94 -73 -94 -12 0 5 50 28
86 24 36 40 39 45 8z m3617 -26 c-8 -24 -63 -88 -77 -88 -4 0 -8 11 -8 25 0
18 7 28 24 35 14 5 30 18 36 30 15 27 33 26 25 -2z m-3610 -75 c5 -20 1 -31
-13 -42 -11 -9 -25 -26 -31 -39 -16 -30 -33 -18 -24 16 7 29 44 92 54 92 4 0
10 -12 14 -27z m3595 -42 c-7 -17 -27 -42 -46 -56 l-34 -26 0 31 c0 22 6 33
23 39 12 5 31 18 41 30 25 27 32 19 16 -18z m-3580 -77 c0 -12 -7 -24 -15 -28
-8 -3 -20 -17 -27 -31 -16 -35 -32 -31 -24 6 9 47 47 104 57 87 5 -7 9 -23 9
-34z m3534 -65 c-43 -44 -54 -48 -54 -20 0 32 11 51 30 51 9 0 25 9 36 21 17
19 19 19 22 4 2 -10 -13 -34 -34 -56z m-3520 -5 c9 -24 7 -54 -4 -54 -5 0 -17
-17 -27 -37 l-17 -38 -4 34 c-3 33 23 111 38 111 5 0 11 -7 14 -16z m3536 -46
c-1 -27 -83 -97 -94 -80 -8 14 5 52 19 52 7 0 23 9 36 20 28 23 39 25 39 8z
m-3500 -84 c0 -7 -5 -16 -11 -20 -6 -3 -18 -23 -27 -43 l-17 -36 -3 34 c-2 19
4 52 14 74 16 35 19 37 31 21 7 -10 13 -23 13 -30z m3476 -20 c-3 -9 -6 -17
-6 -19 0 -11 -90 -64 -94 -56 -11 17 13 61 32 61 10 0 27 7 38 15 25 19 38 19
30 -1z m-4222 -90 l23 -69 77 -5 c42 -3 77 -8 79 -11 1 -4 -26 -27 -60 -53
l-62 -45 24 -72 c14 -40 23 -74 20 -77 -2 -2 -32 16 -66 41 l-62 47 -64 -46
c-36 -25 -66 -44 -69 -42 -2 3 7 37 21 77 l24 72 -57 42 c-32 23 -58 47 -60
52 -1 6 31 12 75 15 l76 5 25 73 c13 40 26 71 28 69 2 -2 15 -35 28 -73z m776
17 c0 -3 -11 -28 -24 -56 -20 -39 -26 -46 -32 -32 -7 19 -2 56 16 102 11 29
12 29 26 11 8 -11 14 -22 14 -25z m4287 -111 c46 0 83 -3 83 -7 0 -5 -22 -23
-48 -41 -91 -62 -85 -50 -57 -132 14 -40 23 -75 21 -78 -3 -2 -33 17 -69 42
l-64 45 -64 -45 c-35 -24 -65 -41 -67 -36 -1 4 7 34 18 67 11 32 20 64 20 71
0 7 -27 32 -60 56 -33 23 -60 45 -60 50 0 4 37 8 81 10 l81 3 18 57 c31 100
30 100 58 16 l26 -78 83 0z m-876 82 c-17 -32 -86 -80 -98 -68 -3 3 -3 17 1
31 4 17 13 25 29 25 12 0 31 7 41 15 27 20 39 19 27 -3z m-3378 -59 c9 -21 9
-27 0 -30 -7 -3 -18 -23 -24 -46 -11 -40 -12 -41 -21 -17 -10 27 8 120 23 120
5 0 15 -12 22 -27z m3335 -45 c-18 -27 -94 -72 -102 -60 -9 15 19 55 39 57 11
1 29 6 40 13 31 18 39 14 23 -10z m-3296 -43 c7 -17 8 -28 1 -37 -6 -7 -14
-28 -18 -46 -3 -18 -11 -30 -16 -26 -17 10 -6 134 12 134 5 0 14 -11 21 -25z
m3258 -43 c0 -14 -32 -39 -72 -55 -31 -13 -38 -14 -38 -2 0 29 13 45 39 45 14
0 33 5 41 10 19 12 30 13 30 2z m-3200 -73 c0 -4 -4 -11 -10 -14 -5 -3 -10
-22 -10 -41 0 -24 -4 -34 -12 -32 -16 5 -22 59 -13 107 l7 36 19 -24 c10 -13
19 -27 19 -32z m3144 -30 c-20 -23 -73 -49 -98 -49 -13 0 -14 4 -4 25 8 17 19
25 37 25 14 0 33 5 41 10 8 5 21 10 29 10 11 0 9 -5 -5 -21z m-3100 -88 c-3
-25 -10 -50 -15 -55 -14 -16 -29 42 -22 89 6 44 6 45 25 28 15 -14 17 -25 12
-62z m3056 11 c0 -15 -33 -38 -69 -51 -43 -14 -51 -14 -51 1 0 18 30 47 44 42
7 -3 23 0 37 5 31 12 39 13 39 3z m-3001 -39 c11 -22 2 -125 -11 -117 -18 11
-28 56 -22 95 7 42 18 49 33 22z m2941 -52 c0 -16 -48 -40 -92 -47 l-43 -7 16
24 c11 16 27 25 49 26 17 1 34 4 37 7 10 9 33 7 33 -3z m-2867 -43 c2 -7 0
-21 -5 -32 -6 -10 -7 -31 -4 -47 3 -16 1 -29 -4 -29 -17 0 -30 38 -30 90 0 47
1 50 19 40 11 -5 21 -15 24 -22z m2807 -38 c0 -13 -47 -36 -92 -44 -29 -5 -38
-4 -38 7 0 20 27 40 43 34 11 -4 64 4 85 12 1 1 2 -3 2 -9z m-2751 -32 c16
-16 18 -25 10 -35 -7 -7 -9 -28 -5 -50 l6 -38 -20 24 c-11 13 -20 38 -20 56 0
18 -3 40 -6 49 -9 23 12 20 35 -6z m2681 -50 c0 -15 -61 -38 -101 -38 l-42 0
21 23 c16 17 32 22 71 22 28 0 51 -3 51 -7z m-2609 -24 c13 -16 20 -114 7
-114 -13 0 -31 43 -38 88 -7 45 6 56 31 26z m2505 -47 c37 5 38 5 22 -13 -22
-22 -128 -37 -128 -18 0 20 42 45 55 34 6 -5 29 -7 51 -3z m-2431 -21 c10 -7
16 -20 12 -28 -3 -9 -2 -32 3 -52 9 -41 -1 -47 -23 -13 -17 27 -33 107 -20
107 5 0 18 -6 28 -14z m2350 -49 l40 1 -24 -19 c-16 -13 -39 -19 -72 -19 -53
0 -57 4 -32 32 11 12 22 16 32 11 9 -4 34 -7 56 -6z m-2260 -30 c10 -33 14
-97 6 -97 -15 0 -38 44 -46 89 -7 42 -6 42 15 31 11 -6 23 -17 25 -23z m2180
-37 c37 -1 39 -2 21 -15 -22 -17 -126 -21 -126 -6 0 17 43 42 54 31 6 -6 28
-10 51 -10z m-2090 -47 c1 -15 5 -39 9 -52 6 -18 5 -22 -5 -19 -16 5 -44 58
-55 102 l-7 28 29 -15 c21 -11 29 -23 29 -44z m1960 -3 c3 -5 22 -10 41 -10
35 0 46 -13 18 -24 -25 -10 -124 -7 -124 3 0 10 39 41 52 41 4 0 10 -4 13 -10z
m-3181 -22 c9 -12 16 -26 16 -30 0 -4 -23 -23 -51 -42 -28 -18 -47 -36 -42
-39 4 -2 44 -10 89 -17 74 -11 82 -15 99 -42 10 -17 56 -78 102 -135 l85 -105
-21 -22 -22 -21 -27 30 c-15 17 -41 48 -57 69 l-31 38 -24 -20 c-27 -22 -31
-11 44 -106 l29 -37 -22 -22 -22 -22 -32 40 c-18 21 -41 50 -53 63 l-20 24
-29 -25 -29 -25 44 -56 c66 -84 65 -82 51 -100 -8 -9 -19 -16 -26 -16 -19 0
-171 190 -158 198 6 4 63 50 128 102 l117 95 -83 16 c-46 10 -85 16 -86 15 -2
-2 -23 -47 -48 -102 -24 -54 -48 -100 -52 -101 -4 -2 -18 12 -29 30 l-21 32
38 77 c21 42 35 79 30 82 -22 14 -70 8 -98 -12 -17 -12 -36 -22 -41 -22 -10 0
-46 49 -40 55 10 10 264 174 270 175 4 0 14 -10 22 -22z m1281 10 c17 -7 25
-19 25 -35 0 -13 5 -33 11 -45 15 -27 3 -35 -20 -14 -17 16 -56 106 -46 106 2
0 16 -5 30 -12z m3414 -73 c72 -47 131 -91 131 -98 -1 -15 -24 -47 -35 -47 -4
0 -68 39 -141 86 l-134 87 17 28 c10 16 21 29 25 29 4 0 66 -38 137 -85z
m-1603 30 c9 -8 30 -15 47 -15 31 -1 31 -1 12 -16 -15 -11 -32 -14 -65 -9 -57
8 -68 19 -39 39 28 19 27 19 45 1z m-1695 -41 c3 -16 11 -39 18 -51 13 -25 11
-26 -14 -17 -17 7 -68 98 -59 107 14 13 49 -12 55 -39z m1606 -5 c6 -6 26 -15
45 -19 l33 -7 -28 -12 c-21 -8 -40 -8 -73 0 -47 12 -54 22 -26 38 22 14 36 13
49 0z m-1532 -11 c14 -6 24 -16 22 -22 -2 -6 4 -28 15 -48 20 -40 18 -44 -13
-28 -21 12 -75 110 -60 110 6 0 22 -5 36 -12z m1478 -52 c15 -4 25 -11 22 -16
-8 -13 -62 -11 -104 4 -26 9 -30 14 -20 23 24 18 43 21 59 8 8 -7 28 -15 43
-19z m1615 25 c23 -14 -11 -68 -43 -68 -37 0 -75 -40 -75 -78 0 -55 65 -115
123 -115 37 0 75 36 83 77 10 51 -13 62 -46 23 -25 -29 -25 -29 -48 -10 l-23
19 41 56 c22 30 44 55 48 55 4 0 31 -16 60 -37 53 -36 53 -37 46 -77 -13 -81
-71 -157 -130 -172 -104 -26 -224 67 -224 172 0 47 39 115 82 143 34 21 83 27
106 12z m-2994 -12 c21 -10 76 -77 76 -94 0 -10 -45 -4 -61 8 -17 13 -59 76
-59 90 0 10 15 9 44 -4z m1236 -28 c0 -5 16 -15 35 -21 19 -6 33 -16 30 -21
-9 -14 -51 -11 -92 6 -30 13 -33 17 -23 30 14 16 50 21 50 6z m-957 -60 c33
-31 39 -42 30 -52 -18 -18 -69 7 -93 46 -25 40 -25 45 0 45 12 0 40 -18 63
-39z m72 -1 c31 -32 37 -43 26 -49 -10 -7 -21 1 -39 27 -13 21 -29 43 -34 50
-24 29 11 8 47 -28z m601 8 c-15 -18 -29 -41 -33 -50 -6 -19 -18 -23 -27 -9
-6 9 36 70 56 83 28 17 29 6 4 -24z m82 10 c-9 -13 -23 -24 -32 -26 -23 -5
-10 23 17 36 31 15 31 15 15 -10z m105 8 c3 -8 19 -17 36 -21 17 -4 31 -11 31
-16 0 -14 -57 -11 -98 7 -35 15 -36 16 -18 30 25 18 42 18 49 0z m-963 -27
c12 -16 20 -33 17 -36 -7 -6 -77 46 -77 58 0 21 40 6 60 -22z m250 -14 c24
-39 25 -45 5 -45 -8 0 -15 9 -15 19 0 11 -4 23 -10 26 -5 3 -15 15 -20 25 -18
34 17 12 40 -25z m70 -8 c23 -38 25 -47 7 -47 -7 0 -18 12 -24 28 -7 15 -20
38 -30 51 -17 24 -17 24 5 12 13 -7 32 -27 42 -44z m315 16 c-14 -21 -25 -46
-25 -55 0 -17 -20 -25 -33 -12 -12 13 58 104 81 104 1 0 -9 -17 -23 -37z m85
31 c0 -3 -9 -17 -20 -31 -11 -14 -20 -32 -20 -39 0 -8 -9 -14 -20 -14 -20 0
-19 3 10 45 27 39 50 57 50 39z m-350 -34 c0 -5 -4 -10 -10 -10 -5 0 -10 5
-10 10 0 6 5 10 10 10 6 0 10 -4 10 -10z m200 0 c0 -5 -4 -10 -10 -10 -5 0
-10 5 -10 10 0 6 5 10 10 10 6 0 10 -4 10 -10z m1571 -60 c-6 -28 -11 -67 -11
-85 0 -19 -5 -35 -11 -35 -8 0 -9 12 -4 38 4 20 9 57 11 82 6 55 14 80 21 63
3 -7 0 -36 -6 -63z m-1215 33 l39 -18 -49 -3 c-63 -4 -83 3 -66 23 16 19 29
19 76 -2z m-504 -15 c-9 -9 -15 -9 -24 0 -9 9 -7 12 12 12 19 0 21 -3 12 -12z
m98 0 c-2 -31 -37 -83 -62 -92 -33 -11 -42 -5 -33 23 15 48 96 106 95 69z
m519 -19 c-24 -30 -41 -39 -46 -22 -2 7 55 53 66 53 2 0 -7 -14 -20 -31z
m-229 5 c0 -8 -5 -12 -10 -9 -6 4 -8 11 -5 16 9 14 15 11 15 -7z m-880 -9 c0
-21 -38 -42 -92 -49 -53 -6 -59 1 -25 31 35 33 117 46 117 18z m164 -14 c7
-10 -46 -31 -78 -31 -16 0 -13 4 14 19 41 22 57 25 64 12z m100 -10 c10 -15
-59 -51 -95 -50 l-34 1 33 14 c18 8 35 21 38 29 7 16 49 21 58 6z m611 -11
c40 -18 40 -19 10 -19 -16 0 -48 8 -70 18 -40 19 -40 19 -10 19 17 0 48 -8 70
-18z m315 6 c0 -8 -18 -29 -40 -46 -48 -38 -52 -25 -9 25 33 37 49 44 49 21z
m-797 -18 c-11 -13 -23 -31 -26 -40 -7 -19 -33 -23 -56 -9 -10 7 -4 16 29 40
52 38 84 43 53 9z m67 1 c-7 -11 -9 -27 -6 -35 7 -17 -17 -29 -40 -20 -13 5
-11 11 12 41 29 38 51 48 34 14z m261 -6 c38 -23 37 -43 -1 -43 -16 0 -30 5
-30 12 0 6 -7 20 -17 30 -15 17 -15 18 1 18 10 0 31 -8 47 -17z m2047 -96
l113 -113 -26 -24 -26 -24 -87 18 c-48 10 -98 20 -112 23 -20 4 -12 -8 44 -65
69 -70 69 -72 51 -92 -10 -11 -22 -20 -26 -20 -4 0 -60 50 -123 111 l-116 111
18 24 c21 29 38 29 147 4 47 -11 91 -20 98 -20 6 0 -20 31 -58 70 -68 68 -68
70 -50 90 10 11 23 20 29 20 6 0 62 -51 124 -113z m-2123 73 c16 -18 16 -20 1
-26 -26 -10 -45 2 -39 25 7 26 15 26 38 1z m175 0 c12 -8 11 -10 -7 -10 -13 0
-23 5 -23 10 0 13 11 13 30 0z m390 -19 c0 -12 -11 -23 -32 -30 -42 -15 -46
-7 -12 23 35 31 44 32 44 7z m-1316 -5 c-10 -8 -21 -12 -24 -10 -5 6 21 24 34
24 6 0 1 -6 -10 -14z m66 -11 c0 -2 -18 -14 -40 -25 -48 -25 -52 -20 -7 9 31
20 47 26 47 16z m-1217 -124 c49 -52 57 -79 36 -125 -6 -13 -26 -32 -44 -42
-26 -14 -38 -15 -64 -6 -19 7 -29 7 -26 1 8 -13 -16 -159 -26 -159 -4 0 -20
10 -35 23 -26 23 -27 24 -15 88 14 84 14 91 -3 115 -14 18 -17 17 -65 -31
l-51 -49 -25 24 -24 25 112 121 112 121 35 -28 c20 -15 57 -50 83 -78z m1182
49 c-27 -28 -64 -43 -49 -19 6 10 64 49 73 49 3 0 -8 -13 -24 -30z m1285 23
c-1 -24 -20 -34 -61 -31 l-44 3 35 17 c38 18 70 23 70 11z m-990 -40 c28 -25
38 -39 31 -46 -6 -6 -12 -9 -13 -6 -2 2 -21 23 -43 47 -48 52 -30 56 25 5z
m69 0 c35 -42 38 -53 16 -53 -8 0 -15 6 -15 14 0 7 -7 19 -16 26 -8 8 -20 22
-25 32 -17 32 8 20 40 -19z m81 -23 c17 -34 18 -40 5 -40 -8 0 -15 5 -15 11 0
6 -11 25 -25 43 -30 40 -32 50 -5 36 11 -6 29 -29 40 -50z m334 54 c13 -5 11
-13 -15 -50 -27 -39 -71 -66 -85 -51 -3 3 4 23 15 44 16 32 34 49 68 62 1 1 8
-2 17 -5z m107 -12 c-5 -10 -17 -24 -25 -32 -9 -7 -16 -19 -16 -26 0 -8 -7
-14 -15 -14 -22 0 -19 11 16 53 32 39 57 51 40 19z m54 -24 c-22 -24 -41 -45
-43 -47 -1 -3 -7 0 -13 6 -7 7 3 21 31 46 55 51 73 47 25 -5z m-456 22 c25
-13 33 -37 15 -44 -9 -3 -20 6 -29 24 -17 32 -14 36 14 20z m-244 -40 c24 -25
33 -40 24 -40 -8 0 -33 18 -54 40 -24 25 -33 40 -24 40 8 0 33 -18 54 -40z
m758 -1 c-22 -23 -47 -39 -54 -37 -8 3 1 17 26 41 55 52 81 48 28 -4z m-822
-15 c18 -19 28 -34 22 -34 -6 0 -13 7 -16 15 -4 8 -22 21 -42 29 -19 8 -35 19
-35 25 0 18 38 -1 71 -35z m914 16 c-25 -26 -65 -41 -65 -24 0 16 55 51 84 53
6 1 -3 -12 -19 -29z m-440 -19 c-9 -18 -13 -36 -10 -41 3 -6 -1 -10 -9 -10 -9
0 -16 2 -16 4 0 8 29 72 36 79 15 15 15 -2 -1 -32z m-537 -16 c49 -46 21 -46
-37 0 -36 29 -40 35 -22 35 12 0 38 -16 59 -35z m1142 27 c0 -19 -48 -50 -86
-57 -46 -7 -64 6 -44 30 21 25 130 47 130 27z m-1209 -44 c61 -44 32 -47 -33
-4 -38 26 -47 36 -32 36 12 0 41 -14 65 -32z m529 19 c0 -22 -66 -87 -89 -87
-11 0 -21 3 -21 6 0 11 23 50 43 72 22 24 67 30 67 9z m-586 -43 c40 -28 36
-44 -12 -44 -28 0 -105 47 -97 60 12 19 70 10 109 -16z m1296 22 c0 -2 -7 -7
-16 -10 -8 -3 -12 -2 -9 4 6 10 25 14 25 6z m-482 -49 c27 -41 27 -47 2 -47
-11 0 -20 7 -20 15 0 9 -7 29 -15 45 -21 40 3 31 33 -13z m-437 -3 c-11 -15
-21 -33 -21 -40 0 -15 -36 -19 -44 -5 -7 10 73 85 81 77 3 -3 -4 -17 -16 -32z
m79 32 c0 -19 -34 -76 -45 -76 -20 0 -19 8 8 47 19 28 37 42 37 29z m430 -32
c22 -20 37 -40 34 -45 -8 -14 -44 -11 -44 4 0 6 -9 23 -20 37 -19 24 -25 40
-15 40 3 0 23 -16 45 -36z m225 19 c19 -9 35 -20 35 -24 0 -10 -28 -19 -32
-11 -2 4 -16 17 -32 30 -34 26 -21 29 29 5z m254 13 c-17 -15 -109 -54 -109
-46 0 12 76 49 99 50 8 0 12 -2 10 -4z m-1145 -38 c-16 -18 -30 -34 -31 -36
-1 -2 -12 -1 -24 3 l-22 7 24 20 c25 20 57 36 73 37 6 1 -3 -14 -20 -31z m69
-5 c-15 -21 -29 -40 -30 -42 -2 -3 -8 0 -14 6 -8 8 -2 20 22 42 46 41 56 39
22 -6z m457 33 c0 -2 3 -11 6 -20 4 -12 0 -16 -15 -16 -14 0 -21 6 -21 20 0
11 7 20 15 20 8 0 15 -2 15 -4z m219 -30 c22 -23 29 -36 21 -41 -6 -4 -13 -5
-14 -4 -47 64 -57 79 -49 79 5 0 24 -15 42 -34z m76 12 c35 -23 41 -41 14 -45
-8 -1 -27 14 -42 33 -33 39 -22 44 28 12z m1565 -59 c82 -44 150 -85 150 -89
0 -5 -13 -18 -28 -29 -28 -20 -28 -20 -60 1 l-31 20 -46 -38 c-48 -41 -51 -48
-34 -91 9 -25 7 -30 -18 -50 -15 -12 -30 -19 -34 -15 -4 4 -30 78 -59 165
l-52 158 23 25 c12 13 26 24 31 24 4 0 75 -36 158 -81z m-1385 61 c-3 -5 -11
-10 -16 -10 -6 0 -7 5 -4 10 3 6 11 10 16 10 6 0 7 -4 4 -10z m-2196 -80 c50
-40 91 -75 91 -79 -1 -10 -26 -41 -34 -41 -4 0 -22 12 -41 26 l-34 25 -77 -98
c-42 -54 -80 -101 -83 -105 -4 -4 -19 3 -35 15 l-29 23 82 105 82 104 -37 32
c-37 32 -37 33 -19 53 10 12 24 19 31 16 7 -3 53 -37 103 -76z m880 51 c51
-27 23 -31 -39 -5 -48 20 -51 23 -25 23 17 0 45 -8 64 -18z m1461 -5 c-30 -12
-59 -20 -64 -18 -15 8 57 41 89 41 26 0 23 -3 -25 -23z m-1511 -27 c17 -6 31
-14 31 -18 0 -15 -14 -20 -26 -10 -7 6 -35 17 -61 24 -48 13 -48 13 -12 14 20
1 50 -4 68 -10z m1578 -4 c-26 -7 -54 -18 -61 -24 -12 -10 -26 -5 -26 10 0 12
52 27 95 27 l40 0 -48 -13z m976 -163 c31 -81 57 -153 57 -159 0 -7 -12 -21
-28 -31 l-27 -20 -88 75 c-48 41 -87 70 -87 65 0 -6 16 -52 35 -102 19 -50 35
-97 35 -104 0 -6 -14 -20 -31 -30 l-30 -18 -82 73 c-45 40 -93 83 -107 96 -23
20 -21 13 17 -65 48 -96 53 -137 23 -175 -26 -33 -97 -67 -139 -67 -46 0 -85
44 -141 159 l-45 93 -21 -104 -21 -103 24 -64 c25 -68 23 -76 -18 -86 -24 -6
-27 -2 -49 55 -21 55 -31 67 -102 122 -44 33 -81 58 -84 56 -2 -2 14 -69 36
-148 21 -79 38 -146 36 -148 -2 -1 -19 -5 -37 -8 -31 -4 -41 2 -117 72 -92 85
-88 88 -51 -46 10 -36 16 -66 15 -67 -1 -2 -16 -6 -33 -9 -25 -5 -32 -2 -36
12 -29 95 -79 296 -75 299 2 3 18 8 35 11 29 6 39 -1 117 -76 l85 -82 -24 92
c-14 50 -25 95 -25 99 0 5 30 18 67 30 l66 22 57 -45 58 -44 6 51 c12 90 13
91 82 121 36 16 66 27 68 25 2 -2 27 -50 56 -107 40 -76 60 -104 77 -108 24
-7 70 17 79 40 3 8 -20 64 -50 125 l-56 111 59 28 59 28 76 -69 c42 -38 76
-66 76 -64 0 5 -46 133 -65 178 -4 12 4 23 30 39 32 19 38 20 53 8 9 -8 44
-38 76 -66 33 -28 61 -50 63 -49 2 2 -15 45 -36 95 l-39 92 25 20 c14 11 28
20 32 20 3 0 32 -67 64 -148z m-2631 97 c70 -15 78 -23 78 -78 -1 -46 -28
-127 -29 -87 -1 20 -1 20 -16 0 -14 -18 -14 -18 -15 6 l-1 25 -14 -25 -14 -25
-1 25 c-1 24 -1 24 -15 6 -15 -19 -15 -19 -15 5 -1 23 -1 23 -15 5 -15 -19
-15 -19 -15 3 0 20 -2 21 -15 11 -13 -10 -15 -9 -15 11 l-1 24 -14 -25 c-14
-25 -14 -25 -15 13 0 43 21 91 47 106 23 13 22 13 85 0z m1759 1 c27 -15 49
-63 49 -107 -1 -38 -1 -38 -15 -13 l-14 25 -1 -24 c0 -20 -2 -21 -15 -11 -13
10 -15 9 -15 -11 0 -22 0 -22 -15 -3 -14 18 -14 18 -15 -5 0 -24 0 -24 -15 -5
-14 18 -14 18 -15 -6 l-1 -25 -14 25 -14 25 -1 -25 c-1 -23 -2 -24 -14 -7 -10
13 -15 15 -19 5 -8 -23 -17 -2 -24 50 -9 83 -2 98 59 109 73 14 77 14 99 3z
m-2289 -105 c73 -48 91 -139 44 -220 -34 -58 -77 -87 -135 -92 -88 -7 -171 67
-171 154 0 71 55 155 120 182 36 15 99 4 142 -24z m247 -140 c60 -31 93 -92
75 -139 -9 -25 -74 11 -74 41 0 40 -76 71 -88 35 -2 -7 19 -33 47 -59 63 -57
78 -97 57 -148 -34 -79 -147 -78 -222 2 -18 20 -24 37 -24 74 0 52 3 55 44 39
20 -7 26 -17 26 -38 0 -16 8 -37 19 -46 25 -23 70 -25 84 -4 9 14 1 27 -46 77
-48 50 -57 65 -57 96 0 73 83 110 159 70z m272 -122 c14 -4 17 -32 23 -180 4
-96 5 -177 2 -180 -2 -3 -21 0 -40 7 -34 11 -36 14 -36 53 0 42 0 42 -57 63
l-57 20 -25 -28 c-24 -27 -28 -28 -59 -17 -18 6 -32 15 -30 20 2 5 54 65 117
134 84 94 118 124 130 119 9 -3 23 -8 32 -11z m214 -73 c96 -22 140 -41 149
-65 10 -27 7 -64 -9 -94 -15 -30 -33 -41 -67 -41 -19 0 -20 -1 -5 -17 17 -20
57 -115 57 -137 0 -11 -8 -12 -39 -4 -37 9 -42 15 -66 77 -44 110 -77 120 -97
29 l-14 -63 -34 3 c-19 2 -36 5 -37 6 -1 1 14 73 33 161 18 88 34 161 34 163
0 4 7 3 95 -18z m278 -57 c3 -6 -28 -195 -53 -320 0 -2 -10 -3 -22 -3 -50 0
-50 6 -21 173 l28 157 32 0 c17 0 34 -3 36 -7z m947 -156 c45 -82 80 -150 78
-151 -1 -2 -19 -6 -39 -9 -34 -5 -37 -3 -53 30 -17 35 -18 35 -63 29 -25 -3
-54 -6 -64 -6 -12 0 -19 -11 -24 -39 -6 -35 -10 -39 -43 -44 -20 -4 -37 -5
-38 -4 -2 1 16 79 40 172 l42 170 35 6 c19 3 37 3 41 0 3 -3 43 -73 88 -154z
m-305 98 c29 -28 32 -70 10 -102 -14 -20 -13 -24 10 -47 28 -28 32 -64 10
-105 -20 -39 -61 -51 -171 -51 l-94 0 0 165 0 165 105 0 c99 0 107 -2 130 -25z
m-407 -141 c29 -6 31 -9 25 -38 -3 -17 -6 -32 -7 -33 -1 -1 -29 1 -64 4 -51 5
-62 9 -62 24 0 48 27 59 108 43z"/>
<path d="M5128 7675 c-5 -41 10 -49 78 -43 31 2 40 7 42 24 4 28 -14 40 -69
48 l-47 7 -4 -36z"/>
<path d="M4176 7588 c-3 -13 -6 -35 -6 -50 0 -22 5 -28 23 -28 42 0 45 13 17
58 -26 39 -28 41 -34 20z"/>
<path d="M6246 7311 l-38 -39 31 -16 c30 -16 31 -16 35 6 5 25 13 88 11 88 0
0 -18 -18 -39 -39z"/>
<path d="M3243 7293 c-18 -9 -33 -21 -33 -25 0 -13 30 -68 37 -68 3 0 21 11
40 26 37 28 43 58 14 74 -23 12 -18 13 -58 -7z"/>
<path d="M6913 6883 c-24 -13 -43 -28 -43 -33 0 -8 50 -44 54 -38 4 4 35 98
33 97 -1 -1 -21 -12 -44 -26z"/>
<path d="M2568 6780 c-25 -25 -29 -36 -24 -61 11 -58 68 -109 120 -109 35 0
76 41 76 77 0 53 -67 123 -118 123 -13 0 -37 -14 -54 -30z"/>
<path d="M2315 6499 c-19 -17 -35 -35 -35 -39 0 -5 35 -36 77 -70 l78 -62 27
31 c47 52 35 94 -40 142 -25 16 -52 29 -59 29 -7 0 -28 -14 -48 -31z"/>
<path d="M7635 6013 c-72 -15 -67 -10 -50 -44 14 -25 19 -28 31 -18 21 17 57
69 47 68 -4 -1 -17 -3 -28 -6z"/>
<path d="M4705 6013 c-266 -32 -523 -123 -727 -260 -401 -268 -655 -674 -718
-1150 -18 -130 -8 -410 19 -534 92 -426 331 -779 689 -1020 654 -440 1530
-342 2075 230 463 487 577 1210 287 1819 -271 567 -845 927 -1470 920 -69 0
-138 -3 -155 -5z m385 -88 c97 -14 236 -48 248 -59 9 -10 -68 -85 -126 -123
-88 -57 -181 -84 -308 -90 -132 -7 -225 10 -330 61 -71 34 -174 118 -174 141
0 19 161 61 295 78 78 10 309 5 395 -8z m-813 -195 c-84 -88 -177 -229 -240
-361 l-51 -107 -34 26 c-44 34 -172 181 -172 198 0 18 137 133 238 200 46 31
130 78 186 105 l101 49 18 -21 c17 -21 16 -23 -46 -89z m1266 56 c62 -30 147
-79 189 -108 88 -60 213 -166 222 -187 4 -8 -1 -25 -10 -39 -22 -33 -175 -192
-185 -192 -4 0 -32 51 -62 113 -77 158 -194 328 -276 401 -11 11 -21 24 -21
31 0 10 19 35 28 35 2 0 54 -25 115 -54z m-1021 -137 c43 -22 44 -25 22 -94
-22 -73 -71 -325 -85 -438 -6 -53 -15 -100 -20 -103 -23 -14 -341 146 -377
189 -8 10 3 41 44 127 66 138 141 252 223 342 l62 67 46 -35 c25 -19 63 -44
85 -55z m870 43 c72 -81 125 -154 176 -243 61 -107 116 -233 110 -251 -13 -32
-275 -168 -355 -184 l-31 -6 -12 88 c-23 175 -79 448 -105 515 -4 12 11 26 60
54 35 21 72 47 82 57 9 10 19 18 24 18 4 0 27 -22 51 -48z m-663 -112 c77 -14
215 -12 296 5 38 8 71 15 72 15 10 0 69 -266 93 -425 29 -187 28 -192 -17
-204 -138 -36 -396 -38 -563 -3 l-85 17 3 45 c7 117 87 527 109 563 2 4 12 5
21 3 10 -3 41 -10 71 -16z m-959 -366 c17 -17 21 -27 13 -32 -6 -4 -14 -19
-18 -34 -7 -26 -6 -27 23 -16 18 7 28 17 25 25 -7 18 7 16 29 -4 22 -19 24
-37 3 -29 -18 7 -93 -19 -117 -41 -12 -11 -16 -23 -12 -37 6 -17 2 -16 -29 9
-36 31 -47 48 -24 39 29 -11 87 95 73 131 -8 23 8 18 34 -11z m2180 5 c0 -6
19 -33 41 -60 33 -40 46 -48 63 -43 17 5 15 -1 -14 -32 -63 -69 -68 -71 -139
-48 -21 6 -22 5 -12 -14 6 -11 21 -22 33 -24 19 -3 14 -10 -37 -50 -58 -46
-88 -60 -82 -37 4 19 -29 34 -46 21 -19 -16 -10 -52 12 -52 12 0 10 -5 -9 -20
-32 -25 -43 -25 -35 1 4 11 -1 52 -10 90 -24 97 -13 106 62 47 76 -59 79 -60
92 -44 9 10 2 25 -30 65 -22 28 -47 51 -55 51 -8 0 -14 3 -14 8 1 11 85 72
101 72 23 0 39 -21 39 -51 0 -19 6 -28 23 -33 32 -9 65 -7 71 3 9 14 -85 113
-100 107 -20 -8 -17 4 8 31 23 25 38 30 38 12z m-2054 -214 c-15 -43 -25 -83
-22 -91 7 -19 0 -18 -34 8 -31 22 -39 40 -18 36 19 -4 21 37 3 52 -19 15 -47
-3 -38 -26 9 -23 -12 -16 -38 13 -16 18 -19 24 -8 20 10 -3 47 12 90 38 42 24
78 39 83 35 5 -5 -2 -41 -18 -85z m-141 -181 l95 -69 -7 -75 c-4 -41 -7 -180
-8 -307 l0 -233 -65 -38 c-91 -53 -205 -131 -280 -191 -35 -28 -67 -48 -70
-44 -11 12 -47 140 -66 228 -34 165 -34 440 1 610 20 98 70 254 102 318 l24
48 90 -89 c49 -49 132 -120 184 -158z m2549 141 c118 -310 139 -631 61 -942
-14 -54 -30 -110 -36 -125 -11 -27 -12 -27 -34 -10 -110 86 -226 169 -305 216
l-95 57 7 112 c7 98 -4 375 -17 447 -4 22 6 32 82 85 48 33 132 104 187 157
56 53 104 97 107 98 4 0 23 -43 43 -95z m-2309 65 c17 -11 24 -20 18 -20 -8 0
-13 -14 -13 -35 0 -35 0 -35 24 -19 16 9 23 21 19 31 -5 13 -1 12 28 -3 l34
-17 -27 -8 c-70 -19 -131 -82 -105 -108 18 -18 -3 -13 -41 11 -32 19 -33 22
-15 29 28 10 46 60 41 114 -2 25 -1 45 2 45 3 0 19 -9 35 -20z m1669 -57 c-3
-16 -1 -57 5 -93 14 -86 3 -96 -49 -45 l-41 40 7 -58 c9 -75 -6 -75 -70 4 -70
84 -84 77 -46 -23 11 -29 20 -59 20 -65 0 -23 -31 -14 -87 27 -31 22 -58 38
-60 36 -2 -2 5 -24 16 -50 13 -29 27 -46 38 -47 24 -1 -53 -34 -99 -43 -32 -6
-37 -4 -32 9 9 22 -13 44 -36 38 -22 -6 -26 -33 -8 -51 9 -9 9 -12 -3 -12 -7
0 -25 -3 -39 -7 -23 -6 -24 -5 -10 12 8 10 19 52 25 94 14 99 29 102 79 16 42
-72 53 -82 69 -66 17 17 -19 122 -44 128 -28 8 -23 21 12 28 25 6 40 0 85 -29
29 -20 56 -36 58 -36 11 0 -32 85 -42 86 -7 1 -15 2 -19 3 -6 1 105 51 115 51
1 0 2 -6 2 -13 0 -7 13 -28 29 -47 l30 -35 -6 58 c-3 31 -2 57 3 57 4 0 25
-17 46 -37 40 -39 44 -35 32 25 -4 17 -14 33 -23 34 -12 3 -8 8 14 21 17 9 31
16 32 17 1 0 0 -12 -3 -27z m-1507 -128 c-1 -52 -3 -95 -5 -95 -1 0 -19 7 -40
16 -32 13 -35 17 -19 25 23 13 22 36 -3 49 -26 14 -43 4 -37 -21 6 -22 -8 -24
-43 -4 -23 13 -23 14 -5 15 12 0 45 25 75 55 30 30 60 55 67 55 10 0 12 -24
10 -95z m147 32 c11 -8 15 -19 10 -30 -9 -23 -24 -22 -24 3 0 13 -7 20 -20 20
-26 0 -26 -27 0 -60 24 -31 25 -58 3 -82 -19 -21 -42 -23 -78 -6 -26 11 -35
51 -15 63 6 3 10 -2 10 -12 0 -22 18 -43 37 -43 18 0 16 40 -3 61 -20 22 -21
63 -4 84 15 18 60 20 84 2z m126 -127 c4 -68 8 -85 21 -88 23 -4 48 126 27
139 -19 12 -6 18 25 12 22 -4 35 -18 61 -71 l33 -66 7 48 c6 40 4 50 -11 62
-20 15 -11 17 36 8 27 -6 29 -8 16 -18 -10 -7 -21 -40 -27 -84 -15 -96 -33
-96 -79 -1 l-34 72 -9 -54 c-6 -37 -5 -54 3 -57 6 -2 11 -7 11 -12 0 -9 -73 4
-115 20 -16 7 -24 14 -17 17 20 8 14 43 -10 52 -29 11 -54 -14 -37 -36 14 -16
1 -17 -38 -2 -27 11 -27 11 -7 19 12 5 41 36 65 69 60 83 73 78 79 -29z m465
-50 c41 -116 74 -117 62 -2 -3 31 -11 58 -17 60 -25 9 -6 22 32 22 30 0 39 -3
31 -11 -6 -6 -9 -29 -6 -52 8 -79 12 -87 38 -87 14 0 25 4 25 8 0 18 37 51 63
57 21 6 27 3 27 -8 0 -10 -11 -17 -32 -19 -25 -2 -34 -9 -38 -28 -5 -21 -14
-26 -50 -32 -76 -11 -176 -10 -163 3 17 17 3 49 -22 49 -27 0 -40 -26 -24 -46
9 -12 4 -14 -27 -14 -30 1 -35 3 -22 10 9 6 28 46 43 90 15 46 32 80 40 80 7
0 25 -35 40 -80z m-857 -49 c95 -48 321 -131 355 -131 15 0 17 -12 17 -84 l0
-84 -37 -7 c-62 -11 -251 -75 -351 -117 -51 -22 -96 -37 -100 -33 -4 4 -7 106
-7 228 1 201 6 277 20 277 3 0 49 -22 103 -49z m1786 -238 c0 -111 -1 -204 -4
-207 -3 -3 -51 13 -105 36 -55 23 -155 58 -223 78 l-123 36 171 128 c93 70
170 129 170 132 0 6 -179 -84 -291 -147 -49 -27 -91 -49 -94 -49 -3 0 -5 20
-5 44 l0 45 58 16 c114 32 218 71 322 121 l105 51 9 -41 c4 -23 9 -132 10
-243z m-304 83 c0 -2 -48 -40 -107 -84 -193 -143 -306 -252 -377 -363 -13 -20
-27 -28 -64 -32 -26 -3 -56 -9 -67 -12 -19 -6 -19 -6 -2 8 9 8 17 22 17 32 0
63 238 257 488 396 109 60 112 62 112 55z m-914 -21 c126 -19 379 -19 509 0
55 8 106 15 113 15 8 0 12 -18 12 -56 l0 -56 -32 6 c-81 14 -321 27 -403 21
-117 -8 -263 -24 -292 -31 -22 -6 -23 -4 -23 55 0 34 4 61 8 61 5 0 53 -7 108
-15z m523 -163 c23 -8 22 -9 -16 -37 -75 -57 -213 -198 -213 -219 0 -12 -10
-27 -22 -35 -34 -21 -338 -41 -364 -23 -7 4 -13 64 -17 148 l-7 142 28 7 c115
30 543 42 611 17z m310 -57 c86 -23 327 -113 360 -134 12 -8 12 -21 2 -88 -18
-111 -52 -253 -60 -253 -4 0 -52 22 -107 49 -54 27 -129 60 -166 72 -54 19
-69 29 -80 54 -9 21 -22 31 -43 35 -29 5 -30 7 -30 58 2 180 6 232 18 232 6 0
54 -11 106 -25z m-1019 -97 c0 -62 3 -123 6 -135 5 -19 1 -22 -50 -28 -61 -8
-71 -15 -80 -60 -6 -26 -15 -34 -69 -54 -34 -13 -100 -43 -146 -67 -46 -25
-86 -43 -88 -41 -6 7 -51 216 -58 272 l-7 54 40 20 c61 31 187 80 277 108 44
13 91 28 105 33 14 5 35 9 48 9 22 1 22 -1 22 -111z m820 8 c0 -40 -3 -94 -6
-119 l-7 -46 -63 -6 c-35 -4 -79 -3 -100 1 l-36 9 48 65 c53 73 142 170 155
170 5 0 9 -33 9 -74z m699 -123 c137 -79 341 -234 341 -259 0 -32 -148 -294
-166 -294 -4 0 -35 27 -71 60 -49 46 -162 136 -222 177 -2 1 8 56 22 120 14
65 29 142 33 171 4 28 9 52 12 52 3 0 26 -12 51 -27z m-2079 -19 c0 -20 18
-109 57 -280 4 -16 -11 -32 -69 -75 -40 -29 -107 -84 -149 -121 l-76 -67 -50
77 c-61 93 -115 199 -111 217 2 7 28 34 58 60 73 63 320 226 331 219 5 -3 9
-16 9 -30z m745 -65 c78 -21 186 -71 182 -83 -3 -8 4 -12 17 -12 20 1 21 -3
24 -150 l3 -152 -64 -6 c-55 -6 -75 -3 -157 25 -80 27 -111 32 -195 33 -108 1
-138 -5 -129 -27 4 -11 27 -14 97 -14 51 0 119 -6 152 -13 l60 -14 -44 -6
c-25 -4 -47 -12 -49 -18 -2 -8 -36 -12 -100 -12 -99 0 -128 -8 -120 -31 3 -10
30 -12 111 -10 l107 3 0 -42 0 -41 48 6 c26 3 138 12 249 21 181 13 208 13
268 -1 91 -21 95 -20 95 14 0 37 23 43 147 40 96 -3 127 7 99 30 -11 9 -49 12
-131 9 -63 -1 -115 0 -115 5 0 4 -12 13 -27 19 l-28 11 45 14 c25 8 91 15 150
16 83 2 105 5 105 16 0 37 -161 37 -294 1 -41 -12 -90 -19 -110 -18 l-36 4 66
32 c80 39 180 62 277 62 65 0 73 2 70 18 -3 14 -16 18 -73 20 -86 4 -167 -11
-266 -49 -85 -33 -116 -58 -97 -77 9 -9 2 -12 -30 -12 l-42 0 0 140 c0 77 -1
143 -2 148 -2 12 143 80 212 99 72 19 262 25 279 8 10 -10 136 -584 129 -590
-2 -2 -40 1 -85 7 -95 12 -232 3 -239 -17 -4 -10 -19 -10 -77 2 -61 12 -110
12 -325 2 -198 -10 -255 -10 -261 0 -11 18 -135 25 -221 13 -41 -6 -76 -10
-77 -8 -2 2 25 135 59 297 l63 294 35 7 c46 9 194 1 245 -13z m195 -39 c0 -5
-4 -10 -9 -10 -6 0 -13 5 -16 10 -3 6 1 10 9 10 9 0 16 -4 16 -10z m130 5 c0
-11 -83 -46 -97 -40 -30 11 15 45 59 45 21 0 38 -2 38 -5z m668 -166 c67 -32
122 -64 122 -69 0 -21 -83 -219 -123 -295 -24 -44 -49 -80 -57 -80 -10 0 -28
66 -66 245 -29 135 -53 251 -53 259 -1 21 40 7 177 -60z m-1331 29 c-4 -13
-25 -111 -47 -218 -23 -107 -43 -202 -46 -210 -3 -9 -15 3 -34 35 -41 69 -122
275 -116 292 5 13 218 123 239 123 5 0 7 -10 4 -22z m1658 -239 c39 -31 85
-73 104 -92 l34 -36 -31 -38 c-37 -47 -128 -133 -205 -196 l-58 -46 -75 61
c-40 33 -74 63 -74 66 0 3 25 54 56 114 46 90 77 164 109 256 6 16 33 -1 140
-89z m-1939 -4 c19 -49 58 -134 87 -188 l51 -99 -24 -20 c-14 -10 -47 -37 -73
-59 l-48 -41 -42 27 c-50 34 -257 235 -257 251 0 19 247 225 263 221 5 -2 24
-43 43 -92z m514 -252 l0 -48 -52 4 c-44 3 -49 5 -32 15 30 17 29 43 -3 51
-38 9 -11 25 45 25 l42 0 0 -47z m789 38 c12 -8 9 -11 -12 -16 -34 -9 -32 -35
3 -52 24 -11 22 -12 -20 -13 -25 0 -55 -3 -67 -6 -19 -5 -23 -2 -23 15 0 11 5
21 10 21 6 0 10 9 10 20 0 11 -5 20 -11 20 -5 0 -7 5 -4 10 8 12 95 13 114 1z
m211 -88 c0 -11 -77 -106 -118 -146 l-39 -39 -66 45 c-36 25 -75 48 -87 52
-16 5 -19 12 -14 28 12 43 32 49 129 43 50 -4 104 -9 122 -12 26 -5 32 -2 38
15 6 19 35 31 35 14z m-1016 -19 c11 -4 16 -19 15 -48 0 -37 -5 -44 -46 -74
-25 -19 -51 -36 -58 -38 -13 -5 -139 135 -130 145 15 15 188 27 219 15z m-296
-54 c7 -11 43 -55 81 -98 61 -70 67 -80 55 -96 -12 -17 -17 -17 -46 -6 -59 23
-228 113 -228 121 0 9 110 99 120 99 3 0 11 -9 18 -20z m1449 -21 c29 -23 53
-45 53 -50 0 -19 -227 -139 -263 -139 -9 0 -19 9 -22 21 -5 16 6 34 52 82 32
34 69 77 82 95 12 17 27 32 33 32 6 0 35 -19 65 -41z m-397 -116 c29 -21 64
-53 78 -70 l24 -33 -28 -11 c-16 -6 -83 -22 -149 -36 -100 -22 -148 -26 -285
-26 -91 -1 -199 5 -240 12 -91 15 -232 51 -243 61 -5 4 13 29 40 55 l48 46
261 -1 c248 -1 395 10 419 31 14 13 17 12 75 -28z"/>
<path d="M5835 5110 c-3 -5 2 -21 11 -35 15 -23 19 -24 32 -12 16 17 10 32
-18 47 -12 6 -21 7 -25 0z"/>
<path d="M5727 4966 c3 -16 10 -23 19 -19 13 5 12 8 -2 24 -22 24 -22 24 -17
-5z"/>
<path d="M3847 5046 c-13 -10 -15 -16 -6 -21 10 -7 28 10 29 28 0 9 -2 9 -23
-7z"/>
<path d="M5210 4740 c0 -19 11 -26 23 -14 8 8 -3 34 -14 34 -5 0 -9 -9 -9 -20z"/>
<path d="M4101 4886 c-8 -9 -11 -19 -7 -23 9 -9 29 13 24 27 -2 8 -8 7 -17 -4z"/>
<path d="M4372 4778 c-16 -16 -15 -28 3 -28 8 0 15 9 15 20 0 23 -2 24 -18 8z"/>
<path d="M4837 4705 c-8 -20 -4 -29 11 -24 5 2 6 13 2 23 -6 19 -7 19 -13 1z"/>
<path d="M4362 3904 c3 -16 15 -20 78 -25 91 -7 174 -31 252 -70 33 -16 63
-27 68 -24 21 13 8 33 -37 57 -86 46 -173 70 -272 76 -87 5 -93 4 -89 -14z"/>
<path d="M5124 3900 c-85 -22 -194 -75 -194 -93 0 -26 12 -25 85 9 86 40 180
64 251 64 48 0 83 17 67 33 -13 13 -140 5 -209 -13z"/>
<path d="M4352 3810 c-48 -20 -18 -35 84 -42 101 -6 199 -32 262 -69 42 -24
62 -24 62 0 0 22 -103 72 -195 94 -82 20 -185 28 -213 17z"/>
<path d="M5202 3809 c-73 -11 -216 -61 -252 -89 -20 -15 -22 -22 -13 -31 10
-10 27 -6 80 19 93 43 174 62 260 62 57 0 75 3 80 15 3 9 3 18 0 22 -11 10
-92 12 -155 2z"/>
<path d="M4321 3696 c-17 -21 -10 -23 104 -30 94 -5 198 -32 276 -72 26 -13
49 -20 53 -17 24 25 -31 61 -154 103 -89 29 -259 40 -279 16z"/>
<path d="M1965 5938 c-31 -18 -44 -40 -45 -73 0 -39 21 -68 64 -89 49 -23 88
-20 116 9 46 49 24 110 -55 146 -47 22 -53 22 -80 7z"/>
<path d="M7793 5738 c-28 -13 -28 -19 -3 -68 24 -47 34 -54 60 -40 24 13 25
22 4 77 -17 45 -25 49 -61 31z"/>
<path d="M1806 5593 c-7 -7 -36 -71 -36 -78 0 -8 71 -26 79 -20 17 10 24 74
11 90 -13 16 -42 20 -54 8z"/>
<path d="M2949 2294 l-24 -26 40 -34 c46 -38 70 -43 85 -14 9 16 4 26 -26 60
-20 22 -40 40 -43 40 -4 0 -18 -12 -32 -26z"/>
<path d="M6750 2102 c10 -25 22 -48 27 -49 5 -2 19 7 30 19 l22 23 -48 27 -49
27 18 -47z"/>
<path d="M3380 1937 c-30 -15 -70 -82 -70 -120 0 -37 40 -77 78 -77 69 0 132
97 106 165 -7 17 -54 45 -76 45 -7 0 -24 -6 -38 -13z"/>
<path d="M3936 1599 c-33 -39 -33 -45 4 -58 l30 -10 0 50 c0 27 -2 49 -4 49
-2 0 -16 -14 -30 -31z"/>
<path d="M4196 1575 c-13 -35 -6 -55 22 -61 15 -3 33 -8 41 -10 26 -8 51 7 51
31 0 27 -18 40 -71 50 -29 5 -38 3 -43 -10z"/>
<path d="M5336 1464 c-4 -21 -9 -47 -12 -56 -5 -15 0 -17 28 -11 18 3 34 7 36
8 2 2 -8 25 -21 51 l-24 47 -7 -39z"/>
<path d="M4990 1465 l0 -37 53 7 c59 8 70 15 65 41 -3 16 -14 20 -61 22 l-57
3 0 -36z"/>
<path d="M4990 1330 c0 -40 0 -40 39 -40 64 0 93 15 89 48 -3 26 -6 27 -65 30
l-63 3 0 -41z"/>
</g>
</svg>
